<mxfile host="65bd71144e">
    <diagram id="28_TyywwkiDDqLGGTrth" name="Pagina-1">
        <mxGraphModel dx="3342" dy="1068" grid="1" gridSize="10" guides="1" tooltips="1" connect="1" arrows="1" fold="1" page="1" pageScale="1" pageWidth="827" pageHeight="1169" math="0" shadow="0">
            <root>
                <mxCell id="0"/>
                <mxCell id="1" parent="0"/>
                <mxCell id="253" value="" style="rounded=0;whiteSpace=wrap;html=1;fillColor=#f5f5f5;strokeColor=#666666;dashed=1;dashPattern=8 8;fontColor=#333333;" parent="1" vertex="1">
                    <mxGeometry x="-980" y="310" width="1400" height="570" as="geometry"/>
                </mxCell>
                <mxCell id="280" value="" style="rounded=0;whiteSpace=wrap;html=1;fillColor=#f8cecc;strokeColor=#b85450;dashed=1;dashPattern=8 8;" vertex="1" parent="1">
                    <mxGeometry x="-970" y="390" width="640" height="460" as="geometry"/>
                </mxCell>
                <mxCell id="257" value="" style="rounded=0;whiteSpace=wrap;html=1;dashed=1;dashPattern=8 8;fillColor=#bac8d3;strokeColor=#23445d;" parent="1" vertex="1">
                    <mxGeometry x="230" y="70" width="580" height="240" as="geometry"/>
                </mxCell>
                <mxCell id="254" value="" style="rounded=0;whiteSpace=wrap;html=1;dashed=1;dashPattern=8 8;fillColor=#fff2cc;strokeColor=#d6b656;" parent="1" vertex="1">
                    <mxGeometry x="30" width="200" height="310" as="geometry"/>
                </mxCell>
                <mxCell id="251" value="" style="rounded=0;whiteSpace=wrap;html=1;fillColor=#d5e8d4;strokeColor=#82b366;dashed=1;dashPattern=8 8;" parent="1" vertex="1">
                    <mxGeometry x="-413" y="70" width="443" height="240" as="geometry"/>
                </mxCell>
                <mxCell id="247" value="" style="rounded=0;whiteSpace=wrap;html=1;fillColor=#e1d5e7;strokeColor=#9673a6;dashed=1;dashPattern=8 8;" parent="1" vertex="1">
                    <mxGeometry x="-330" y="460" width="440" height="390" as="geometry"/>
                </mxCell>
                <mxCell id="244" value="" style="rounded=0;whiteSpace=wrap;html=1;fillColor=#dae8fc;strokeColor=#6c8ebf;dashed=1;dashPattern=8 8;" parent="1" vertex="1">
                    <mxGeometry x="110" y="460" width="300" height="310" as="geometry"/>
                </mxCell>
                <mxCell id="60" value="" style="rounded=0;whiteSpace=wrap;html=1;fillColor=#ffe6cc;strokeColor=#d79b00;dashed=1;dashPattern=8 8;" parent="1" vertex="1">
                    <mxGeometry x="420" y="230" width="470" height="420" as="geometry"/>
                </mxCell>
                <mxCell id="2" value="" style="ellipse;html=1;shape=startState;fillColor=#000000;strokeColor=#ff0000;" parent="1" vertex="1">
                    <mxGeometry x="320" y="80" width="40" height="40" as="geometry"/>
                </mxCell>
                <mxCell id="3" value="" style="edgeStyle=orthogonalEdgeStyle;html=1;verticalAlign=bottom;endArrow=open;endSize=8;strokeColor=#ff0000;" parent="1" source="2" target="4" edge="1">
                    <mxGeometry relative="1" as="geometry">
                        <mxPoint x="340" y="160" as="targetPoint"/>
                    </mxGeometry>
                </mxCell>
                <mxCell id="54" value="caricamento titoli articoli da database" style="edgeLabel;html=1;align=center;verticalAlign=middle;resizable=0;points=[];" parent="3" vertex="1" connectable="0">
                    <mxGeometry x="-0.3181" relative="1" as="geometry">
                        <mxPoint as="offset"/>
                    </mxGeometry>
                </mxCell>
                <mxCell id="4" value="Home page" style="rounded=1;whiteSpace=wrap;html=1;arcSize=40;fontColor=#000000;fillColor=#ffffc0;strokeColor=#ff0000;" parent="1" vertex="1">
                    <mxGeometry x="280" y="160" width="120" height="40" as="geometry"/>
                </mxCell>
                <mxCell id="5" value="" style="edgeStyle=orthogonalEdgeStyle;html=1;verticalAlign=bottom;endArrow=open;endSize=8;strokeColor=#ff0000;" parent="1" source="4" target="7" edge="1">
                    <mxGeometry relative="1" as="geometry">
                        <mxPoint x="340" y="240" as="targetPoint"/>
                    </mxGeometry>
                </mxCell>
                <mxCell id="6" value="click pulsante area personale" style="edgeLabel;html=1;align=center;verticalAlign=middle;resizable=0;points=[];" parent="5" vertex="1" connectable="0">
                    <mxGeometry x="-0.1695" y="-1" relative="1" as="geometry">
                        <mxPoint as="offset"/>
                    </mxGeometry>
                </mxCell>
                <mxCell id="7" value="loggato?" style="rhombus;whiteSpace=wrap;html=1;fontColor=#000000;fillColor=#ffffc0;strokeColor=#ff0000;" parent="1" vertex="1">
                    <mxGeometry x="300" y="240" width="80" height="40" as="geometry"/>
                </mxCell>
                <mxCell id="8" value="no" style="edgeStyle=orthogonalEdgeStyle;html=1;align=left;verticalAlign=bottom;endArrow=open;endSize=8;strokeColor=#ff0000;" parent="1" source="7" target="13" edge="1">
                    <mxGeometry x="-1" relative="1" as="geometry">
                        <mxPoint x="440" y="260" as="targetPoint"/>
                    </mxGeometry>
                </mxCell>
                <mxCell id="9" value="sÃ¬" style="edgeStyle=orthogonalEdgeStyle;html=1;align=left;verticalAlign=top;endArrow=open;endSize=8;strokeColor=#ff0000;" parent="1" source="7" target="90" edge="1">
                    <mxGeometry x="-1" relative="1" as="geometry">
                        <mxPoint x="340" y="320" as="targetPoint"/>
                        <Array as="points">
                            <mxPoint x="340" y="360"/>
                            <mxPoint x="70" y="360"/>
                        </Array>
                    </mxGeometry>
                </mxCell>
                <mxCell id="13" value="Pagina di login/registrazione" style="rounded=1;whiteSpace=wrap;html=1;arcSize=40;fontColor=#000000;fillColor=#ffffc0;strokeColor=#ff0000;" parent="1" vertex="1">
                    <mxGeometry x="440" y="240" width="120" height="40" as="geometry"/>
                </mxCell>
                <mxCell id="14" value="" style="edgeStyle=orthogonalEdgeStyle;html=1;verticalAlign=bottom;endArrow=open;endSize=8;strokeColor=#ff0000;" parent="1" source="13" edge="1">
                    <mxGeometry relative="1" as="geometry">
                        <mxPoint x="500" y="320" as="targetPoint"/>
                    </mxGeometry>
                </mxCell>
                <mxCell id="15" value="" style="edgeStyle=orthogonalEdgeStyle;html=1;verticalAlign=bottom;endArrow=open;endSize=8;strokeColor=#ff0000;" parent="1" source="13" target="4" edge="1">
                    <mxGeometry relative="1" as="geometry">
                        <mxPoint x="550" y="350" as="targetPoint"/>
                        <mxPoint x="550" y="290" as="sourcePoint"/>
                        <Array as="points">
                            <mxPoint x="500" y="190"/>
                        </Array>
                    </mxGeometry>
                </mxCell>
                <mxCell id="16" value="click pulsante home" style="edgeLabel;html=1;align=center;verticalAlign=middle;resizable=0;points=[];" parent="15" vertex="1" connectable="0">
                    <mxGeometry x="-0.66" y="3" relative="1" as="geometry">
                        <mxPoint y="-3" as="offset"/>
                    </mxGeometry>
                </mxCell>
                <mxCell id="18" value="&lt;span style=&quot;color: rgb(0, 0, 0);&quot;&gt;Sottosezione registrazione&lt;/span&gt;" style="rounded=1;whiteSpace=wrap;html=1;arcSize=40;fontColor=#000000;fillColor=#ffffc0;strokeColor=#ff0000;" parent="1" vertex="1">
                    <mxGeometry x="440" y="320" width="120" height="40" as="geometry"/>
                </mxCell>
                <mxCell id="22" value="Sottosezione login" style="rounded=1;whiteSpace=wrap;html=1;arcSize=40;fontColor=#000000;fillColor=#ffffc0;strokeColor=#ff0000;" parent="1" vertex="1">
                    <mxGeometry x="760" y="240" width="120" height="40" as="geometry"/>
                </mxCell>
                <mxCell id="27" value="" style="edgeStyle=orthogonalEdgeStyle;html=1;verticalAlign=bottom;endArrow=open;endSize=8;strokeColor=#ff0000;" parent="1" source="13" target="22" edge="1">
                    <mxGeometry relative="1" as="geometry">
                        <mxPoint x="510" y="330" as="targetPoint"/>
                        <mxPoint x="510" y="290" as="sourcePoint"/>
                    </mxGeometry>
                </mxCell>
                <mxCell id="29" value="" style="edgeStyle=orthogonalEdgeStyle;html=1;verticalAlign=bottom;endArrow=open;endSize=8;strokeColor=#ff0000;" parent="1" source="18" target="31" edge="1">
                    <mxGeometry relative="1" as="geometry">
                        <mxPoint x="499.62" y="400" as="targetPoint"/>
                        <mxPoint x="499.62" y="360" as="sourcePoint"/>
                    </mxGeometry>
                </mxCell>
                <mxCell id="30" value="invio form" style="edgeLabel;html=1;align=center;verticalAlign=middle;resizable=0;points=[];" parent="29" vertex="1" connectable="0">
                    <mxGeometry x="-0.1538" y="2" relative="1" as="geometry">
                        <mxPoint as="offset"/>
                    </mxGeometry>
                </mxCell>
                <mxCell id="31" value="compilato correttamente?" style="rhombus;whiteSpace=wrap;html=1;fontColor=#000000;fillColor=#ffffc0;strokeColor=#ff0000;" parent="1" vertex="1">
                    <mxGeometry x="460" y="400" width="80" height="40" as="geometry"/>
                </mxCell>
                <mxCell id="32" value="no" style="edgeStyle=orthogonalEdgeStyle;html=1;align=left;verticalAlign=bottom;endArrow=open;endSize=8;strokeColor=#ff0000;" parent="1" source="31" target="34" edge="1">
                    <mxGeometry x="-1" relative="1" as="geometry">
                        <mxPoint x="600" y="420" as="targetPoint"/>
                    </mxGeometry>
                </mxCell>
                <mxCell id="33" value="sÃ¬" style="edgeStyle=orthogonalEdgeStyle;html=1;align=left;verticalAlign=top;endArrow=open;endSize=8;strokeColor=#ff0000;" parent="1" source="31" edge="1">
                    <mxGeometry x="-1" relative="1" as="geometry">
                        <mxPoint x="500" y="480" as="targetPoint"/>
                    </mxGeometry>
                </mxCell>
                <mxCell id="34" value="&lt;span style=&quot;color: rgb(0, 0, 0);&quot;&gt;Errore registrazione/login&lt;/span&gt;" style="rounded=1;whiteSpace=wrap;html=1;arcSize=40;fontColor=#000000;fillColor=#ffffc0;strokeColor=#ff0000;" parent="1" vertex="1">
                    <mxGeometry x="600" y="400" width="120" height="40" as="geometry"/>
                </mxCell>
                <mxCell id="35" value="" style="edgeStyle=orthogonalEdgeStyle;html=1;align=left;verticalAlign=bottom;endArrow=open;endSize=8;strokeColor=#ff0000;" parent="1" source="34" target="18" edge="1">
                    <mxGeometry x="-1" relative="1" as="geometry">
                        <mxPoint x="610" y="430" as="targetPoint"/>
                        <mxPoint x="610" y="360" as="sourcePoint"/>
                        <Array as="points">
                            <mxPoint x="660" y="340"/>
                        </Array>
                    </mxGeometry>
                </mxCell>
                <mxCell id="36" value="Creazione credenziali su database" style="rounded=1;whiteSpace=wrap;html=1;arcSize=40;fontColor=#000000;fillColor=#ffffc0;strokeColor=#ff0000;" parent="1" vertex="1">
                    <mxGeometry x="440" y="480" width="120" height="40" as="geometry"/>
                </mxCell>
                <mxCell id="37" value="credenziali corrette?" style="rhombus;whiteSpace=wrap;html=1;fontColor=#000000;fillColor=#ffffc0;strokeColor=#ff0000;" parent="1" vertex="1">
                    <mxGeometry x="600" y="520" width="80" height="40" as="geometry"/>
                </mxCell>
                <mxCell id="38" value="no" style="edgeStyle=orthogonalEdgeStyle;html=1;align=left;verticalAlign=bottom;endArrow=open;endSize=8;strokeColor=#ff0000;" parent="1" source="37" target="34" edge="1">
                    <mxGeometry x="-1" relative="1" as="geometry">
                        <mxPoint x="640" y="580" as="targetPoint"/>
                        <Array as="points">
                            <mxPoint x="720" y="540"/>
                            <mxPoint x="720" y="500"/>
                            <mxPoint x="660" y="500"/>
                        </Array>
                    </mxGeometry>
                </mxCell>
                <mxCell id="39" value="sÃ¬" style="edgeStyle=orthogonalEdgeStyle;html=1;align=left;verticalAlign=top;endArrow=open;endSize=8;strokeColor=#ff0000;" parent="1" source="102" target="90" edge="1">
                    <mxGeometry x="-1" relative="1" as="geometry">
                        <mxPoint x="400" y="340" as="targetPoint"/>
                        <Array as="points">
                            <mxPoint x="430" y="584"/>
                            <mxPoint x="430" y="360"/>
                            <mxPoint x="70" y="360"/>
                        </Array>
                    </mxGeometry>
                </mxCell>
                <mxCell id="40" value="" style="edgeStyle=orthogonalEdgeStyle;html=1;verticalAlign=bottom;endArrow=open;endSize=8;strokeColor=#ff0000;" parent="1" source="36" target="37" edge="1">
                    <mxGeometry relative="1" as="geometry">
                        <mxPoint x="350" y="430" as="targetPoint"/>
                        <mxPoint x="350" y="370" as="sourcePoint"/>
                        <Array as="points">
                            <mxPoint x="640" y="500"/>
                        </Array>
                    </mxGeometry>
                </mxCell>
                <mxCell id="43" value="" style="edgeStyle=orthogonalEdgeStyle;html=1;verticalAlign=bottom;endArrow=open;endSize=8;strokeColor=#ff0000;" parent="1" source="22" target="45" edge="1">
                    <mxGeometry relative="1" as="geometry">
                        <mxPoint x="819.62" y="320" as="targetPoint"/>
                        <mxPoint x="820" y="280" as="sourcePoint"/>
                    </mxGeometry>
                </mxCell>
                <mxCell id="44" value="invio form" style="edgeLabel;html=1;align=center;verticalAlign=middle;resizable=0;points=[];" parent="43" vertex="1" connectable="0">
                    <mxGeometry x="-0.1538" y="2" relative="1" as="geometry">
                        <mxPoint as="offset"/>
                    </mxGeometry>
                </mxCell>
                <mxCell id="45" value="compilato correttamente?" style="rhombus;whiteSpace=wrap;html=1;fontColor=#000000;fillColor=#ffffc0;strokeColor=#ff0000;" parent="1" vertex="1">
                    <mxGeometry x="780" y="320" width="80" height="40" as="geometry"/>
                </mxCell>
                <mxCell id="46" value="no" style="edgeStyle=orthogonalEdgeStyle;html=1;align=left;verticalAlign=bottom;endArrow=open;endSize=8;strokeColor=#ff0000;" parent="1" source="45" target="34" edge="1">
                    <mxGeometry x="-0.7143" relative="1" as="geometry">
                        <mxPoint x="920" y="340" as="targetPoint"/>
                        <Array as="points">
                            <mxPoint x="740" y="340"/>
                            <mxPoint x="740" y="420"/>
                        </Array>
                        <mxPoint as="offset"/>
                    </mxGeometry>
                </mxCell>
                <mxCell id="47" value="sÃ¬" style="edgeStyle=orthogonalEdgeStyle;html=1;align=left;verticalAlign=top;endArrow=open;endSize=8;strokeColor=#ff0000;" parent="1" source="45" target="48" edge="1">
                    <mxGeometry x="-1" relative="1" as="geometry">
                        <mxPoint x="820" y="400" as="targetPoint"/>
                    </mxGeometry>
                </mxCell>
                <mxCell id="48" value="Controllo credenziali su database" style="rounded=1;whiteSpace=wrap;html=1;arcSize=40;fontColor=#000000;fillColor=#ffffc0;strokeColor=#ff0000;" parent="1" vertex="1">
                    <mxGeometry x="760" y="400" width="120" height="40" as="geometry"/>
                </mxCell>
                <mxCell id="49" value="" style="edgeStyle=orthogonalEdgeStyle;html=1;verticalAlign=bottom;endArrow=open;endSize=8;strokeColor=#ff0000;" parent="1" source="48" target="50" edge="1">
                    <mxGeometry relative="1" as="geometry">
                        <mxPoint x="820" y="480" as="targetPoint"/>
                        <mxPoint x="670" y="290" as="sourcePoint"/>
                    </mxGeometry>
                </mxCell>
                <mxCell id="50" value="credenziali corrette?" style="rhombus;whiteSpace=wrap;html=1;fontColor=#000000;fillColor=#ffffc0;strokeColor=#ff0000;" parent="1" vertex="1">
                    <mxGeometry x="780" y="480" width="80" height="40" as="geometry"/>
                </mxCell>
                <mxCell id="51" value="no" style="edgeStyle=orthogonalEdgeStyle;html=1;align=left;verticalAlign=bottom;endArrow=open;endSize=8;strokeColor=#ff0000;" parent="1" source="50" target="34" edge="1">
                    <mxGeometry x="-0.7778" relative="1" as="geometry">
                        <mxPoint x="670" y="450" as="targetPoint"/>
                        <mxPoint x="550" y="590" as="sourcePoint"/>
                        <mxPoint as="offset"/>
                    </mxGeometry>
                </mxCell>
                <mxCell id="52" value="" style="edgeStyle=orthogonalEdgeStyle;html=1;align=left;verticalAlign=bottom;endArrow=open;endSize=8;strokeColor=#ff0000;" parent="1" source="34" target="22" edge="1">
                    <mxGeometry x="-1" relative="1" as="geometry">
                        <mxPoint x="570" y="350" as="targetPoint"/>
                        <mxPoint x="670" y="410" as="sourcePoint"/>
                        <Array as="points">
                            <mxPoint x="670" y="260"/>
                        </Array>
                    </mxGeometry>
                </mxCell>
                <mxCell id="53" value="sÃ¬" style="edgeStyle=orthogonalEdgeStyle;html=1;align=left;verticalAlign=top;endArrow=open;endSize=8;strokeColor=#ff0000;" parent="1" source="50" target="90" edge="1">
                    <mxGeometry x="-1" relative="1" as="geometry">
                        <mxPoint x="400" y="340" as="targetPoint"/>
                        <mxPoint x="470" y="590" as="sourcePoint"/>
                        <Array as="points">
                            <mxPoint x="820" y="640"/>
                            <mxPoint x="430" y="640"/>
                            <mxPoint x="430" y="360"/>
                            <mxPoint x="70" y="360"/>
                        </Array>
                    </mxGeometry>
                </mxCell>
                <mxCell id="57" value="" style="edgeStyle=orthogonalEdgeStyle;html=1;verticalAlign=bottom;endArrow=open;endSize=8;strokeColor=#ff0000;" parent="1" source="4" target="59" edge="1">
                    <mxGeometry relative="1" as="geometry">
                        <mxPoint x="350" y="170" as="targetPoint"/>
                        <mxPoint x="350" y="130" as="sourcePoint"/>
                    </mxGeometry>
                </mxCell>
                <mxCell id="58" value="click link articolo" style="edgeLabel;html=1;align=center;verticalAlign=middle;resizable=0;points=[];" parent="57" vertex="1" connectable="0">
                    <mxGeometry x="-0.3181" relative="1" as="geometry">
                        <mxPoint x="-19" as="offset"/>
                    </mxGeometry>
                </mxCell>
                <mxCell id="59" value="Caricamento dati articolo da database" style="rounded=1;whiteSpace=wrap;html=1;arcSize=40;fontColor=#000000;fillColor=#ffffc0;strokeColor=#ff0000;" parent="1" vertex="1">
                    <mxGeometry x="40" y="160" width="120" height="40" as="geometry"/>
                </mxCell>
                <mxCell id="61" value="" style="edgeStyle=orthogonalEdgeStyle;html=1;verticalAlign=bottom;endArrow=open;endSize=8;strokeColor=#ff0000;" parent="1" source="90" target="4" edge="1">
                    <mxGeometry relative="1" as="geometry">
                        <mxPoint x="410" y="190" as="targetPoint"/>
                        <mxPoint x="280" y="340" as="sourcePoint"/>
                        <Array as="points">
                            <mxPoint x="50" y="340"/>
                            <mxPoint x="240" y="340"/>
                            <mxPoint x="240" y="190"/>
                        </Array>
                    </mxGeometry>
                </mxCell>
                <mxCell id="62" value="click pulsante home" style="edgeLabel;html=1;align=center;verticalAlign=middle;resizable=0;points=[];" parent="61" vertex="1" connectable="0">
                    <mxGeometry x="-0.66" y="3" relative="1" as="geometry">
                        <mxPoint x="55" y="3" as="offset"/>
                    </mxGeometry>
                </mxCell>
                <mxCell id="73" value="Pagina articolo" style="rounded=1;whiteSpace=wrap;html=1;arcSize=40;fontColor=#000000;fillColor=#ffffc0;strokeColor=#ff0000;" parent="1" vertex="1">
                    <mxGeometry x="40" y="80" width="120" height="40" as="geometry"/>
                </mxCell>
                <mxCell id="74" value="" style="edgeStyle=orthogonalEdgeStyle;html=1;verticalAlign=bottom;endArrow=open;endSize=8;strokeColor=#ff0000;" parent="1" source="59" target="73" edge="1">
                    <mxGeometry relative="1" as="geometry">
                        <mxPoint x="170" y="190" as="targetPoint"/>
                        <mxPoint x="290" y="190" as="sourcePoint"/>
                    </mxGeometry>
                </mxCell>
                <mxCell id="76" value="" style="edgeStyle=orthogonalEdgeStyle;html=1;verticalAlign=bottom;endArrow=open;endSize=8;strokeColor=#ff0000;" parent="1" source="73" target="4" edge="1">
                    <mxGeometry relative="1" as="geometry">
                        <mxPoint x="290" y="200" as="targetPoint"/>
                        <mxPoint x="290" y="350" as="sourcePoint"/>
                        <Array as="points">
                            <mxPoint x="200" y="100"/>
                            <mxPoint x="200" y="170"/>
                        </Array>
                    </mxGeometry>
                </mxCell>
                <mxCell id="78" value="&lt;span style=&quot;color: rgb(0, 0, 0);&quot;&gt;click pulsante home&lt;/span&gt;" style="edgeLabel;html=1;align=center;verticalAlign=middle;resizable=0;points=[];" parent="76" vertex="1" connectable="0">
                    <mxGeometry x="-0.2111" y="-2" relative="1" as="geometry">
                        <mxPoint y="15" as="offset"/>
                    </mxGeometry>
                </mxCell>
                <mxCell id="79" value="Modifica home page con risultato ricerca" style="rounded=1;whiteSpace=wrap;html=1;arcSize=40;fontColor=#000000;fillColor=#ffffc0;strokeColor=#ff0000;" parent="1" vertex="1">
                    <mxGeometry x="560" y="160" width="120" height="40" as="geometry"/>
                </mxCell>
                <mxCell id="85" value="" style="edgeStyle=orthogonalEdgeStyle;html=1;verticalAlign=bottom;endArrow=open;endSize=8;strokeColor=#ff0000;" parent="1" source="4" target="79" edge="1">
                    <mxGeometry relative="1" as="geometry">
                        <mxPoint x="350" y="250" as="targetPoint"/>
                        <mxPoint x="350" y="210" as="sourcePoint"/>
                        <Array as="points">
                            <mxPoint x="540" y="180"/>
                            <mxPoint x="540" y="180"/>
                        </Array>
                    </mxGeometry>
                </mxCell>
                <mxCell id="86" value="ricerca articolo" style="edgeLabel;html=1;align=center;verticalAlign=middle;resizable=0;points=[];" parent="85" vertex="1" connectable="0">
                    <mxGeometry x="-0.1695" y="-1" relative="1" as="geometry">
                        <mxPoint y="-2" as="offset"/>
                    </mxGeometry>
                </mxCell>
                <mxCell id="87" value="" style="edgeStyle=orthogonalEdgeStyle;html=1;verticalAlign=bottom;endArrow=open;endSize=8;strokeColor=#ff0000;" parent="1" source="79" target="4" edge="1">
                    <mxGeometry relative="1" as="geometry">
                        <mxPoint x="570" y="180" as="targetPoint"/>
                        <mxPoint x="570" y="110" as="sourcePoint"/>
                        <Array as="points">
                            <mxPoint x="500" y="190"/>
                            <mxPoint x="500" y="190"/>
                        </Array>
                    </mxGeometry>
                </mxCell>
                <mxCell id="90" value="Area personale (generata in base ai ruoli)" style="rounded=1;whiteSpace=wrap;html=1;arcSize=40;fontColor=#000000;fillColor=#ffffc0;strokeColor=#ff0000;" parent="1" vertex="1">
                    <mxGeometry x="-40" y="400" width="120" height="40" as="geometry"/>
                </mxCell>
                <mxCell id="95" value="" style="edgeStyle=orthogonalEdgeStyle;html=1;verticalAlign=bottom;endArrow=open;endSize=8;strokeColor=#ff0000;" parent="1" source="90" target="100" edge="1">
                    <mxGeometry relative="1" as="geometry">
                        <mxPoint x="140" y="480" as="targetPoint"/>
                        <mxPoint x="60" y="440" as="sourcePoint"/>
                    </mxGeometry>
                </mxCell>
                <mxCell id="104" value="caricamento dati&amp;nbsp;&lt;div&gt;utenti da database&lt;/div&gt;" style="edgeLabel;html=1;align=center;verticalAlign=middle;resizable=0;points=[];" parent="95" vertex="1" connectable="0">
                    <mxGeometry x="0.5636" y="-1" relative="1" as="geometry">
                        <mxPoint as="offset"/>
                    </mxGeometry>
                </mxCell>
                <mxCell id="96" value="" style="edgeStyle=orthogonalEdgeStyle;html=1;verticalAlign=bottom;endArrow=open;endSize=8;strokeColor=#ff0000;" parent="1" source="90" target="101" edge="1">
                    <mxGeometry relative="1" as="geometry">
                        <mxPoint x="-100" y="480" as="targetPoint"/>
                        <mxPoint x="-79.99" y="440" as="sourcePoint"/>
                        <Array as="points">
                            <mxPoint x="-420" y="420"/>
                        </Array>
                    </mxGeometry>
                </mxCell>
                <mxCell id="107" value="&lt;span style=&quot;color: rgb(0, 0, 0);&quot;&gt;caricamento articoli&lt;/span&gt;&lt;div&gt;&lt;span style=&quot;color: rgb(0, 0, 0);&quot;&gt;da database&lt;/span&gt;&lt;/div&gt;" style="edgeLabel;html=1;align=center;verticalAlign=middle;resizable=0;points=[];" parent="96" vertex="1" connectable="0">
                    <mxGeometry x="0.5452" y="1" relative="1" as="geometry">
                        <mxPoint x="30" y="-1" as="offset"/>
                    </mxGeometry>
                </mxCell>
                <mxCell id="97" value="" style="edgeStyle=orthogonalEdgeStyle;html=1;verticalAlign=bottom;endArrow=open;endSize=8;strokeColor=#ff0000;" parent="1" target="99" edge="1">
                    <mxGeometry relative="1" as="geometry">
                        <mxPoint x="19.840000000000003" y="500" as="targetPoint"/>
                        <mxPoint x="19.840000000000003" y="440" as="sourcePoint"/>
                    </mxGeometry>
                </mxCell>
                <mxCell id="106" value="caricamento articoli da database" style="edgeLabel;html=1;align=center;verticalAlign=middle;resizable=0;points=[];" parent="97" vertex="1" connectable="0">
                    <mxGeometry x="-0.4787" y="-2" relative="1" as="geometry">
                        <mxPoint as="offset"/>
                    </mxGeometry>
                </mxCell>
                <mxCell id="99" value="Sottosezione moderatore" style="rounded=1;whiteSpace=wrap;html=1;arcSize=40;fontColor=#000000;fillColor=#ffffc0;strokeColor=#ff0000;" parent="1" vertex="1">
                    <mxGeometry x="-40" y="480" width="120" height="40" as="geometry"/>
                </mxCell>
                <mxCell id="100" value="Sottosezione amministratore" style="rounded=1;whiteSpace=wrap;html=1;arcSize=40;fontColor=#000000;fillColor=#ffffc0;strokeColor=#ff0000;" parent="1" vertex="1">
                    <mxGeometry x="120" y="480" width="120" height="40" as="geometry"/>
                </mxCell>
                <mxCell id="101" value="Sottosezione scrittore" style="rounded=1;whiteSpace=wrap;html=1;arcSize=40;fontColor=#000000;fillColor=#ffffc0;strokeColor=#ff0000;" parent="1" vertex="1">
                    <mxGeometry x="-480" y="479.91" width="120" height="40" as="geometry"/>
                </mxCell>
                <mxCell id="102" value="Invio mail candidatura ad amministratore" style="rounded=1;whiteSpace=wrap;html=1;arcSize=40;fontColor=#000000;fillColor=#ffffc0;strokeColor=#ff0000;" parent="1" vertex="1">
                    <mxGeometry x="440" y="564" width="120" height="40" as="geometry"/>
                </mxCell>
                <mxCell id="105" value="sÃ¬" style="edgeStyle=orthogonalEdgeStyle;html=1;align=left;verticalAlign=top;endArrow=open;endSize=8;strokeColor=#ff0000;" parent="1" source="37" target="102" edge="1">
                    <mxGeometry x="-1" relative="1" as="geometry">
                        <mxPoint x="510" y="490" as="targetPoint"/>
                        <mxPoint x="510" y="450" as="sourcePoint"/>
                        <Array as="points">
                            <mxPoint x="640" y="584"/>
                        </Array>
                    </mxGeometry>
                </mxCell>
                <mxCell id="109" value="Modale informazioni utente" style="rounded=1;whiteSpace=wrap;html=1;arcSize=40;fontColor=#000000;fillColor=#ffffc0;strokeColor=#ff0000;" parent="1" vertex="1">
                    <mxGeometry x="120" y="560" width="120" height="40" as="geometry"/>
                </mxCell>
                <mxCell id="110" value="" style="edgeStyle=orthogonalEdgeStyle;html=1;verticalAlign=bottom;endArrow=open;endSize=8;strokeColor=#ff0000;" parent="1" source="100" target="109" edge="1">
                    <mxGeometry relative="1" as="geometry">
                        <mxPoint x="30" y="490" as="targetPoint"/>
                        <mxPoint x="29.840000000000003" y="450" as="sourcePoint"/>
                        <Array as="points">
                            <mxPoint x="220" y="580"/>
                        </Array>
                    </mxGeometry>
                </mxCell>
                <mxCell id="111" value="click link utente" style="edgeLabel;html=1;align=center;verticalAlign=middle;resizable=0;points=[];" parent="110" vertex="1" connectable="0">
                    <mxGeometry x="-0.4787" y="-2" relative="1" as="geometry">
                        <mxPoint x="2" y="7" as="offset"/>
                    </mxGeometry>
                </mxCell>
                <mxCell id="117" value="" style="edgeStyle=orthogonalEdgeStyle;html=1;verticalAlign=bottom;endArrow=open;endSize=8;strokeColor=#ff0000;" parent="1" source="109" target="100" edge="1">
                    <mxGeometry relative="1" as="geometry">
                        <mxPoint x="290" y="560" as="targetPoint"/>
                        <mxPoint x="290" y="520" as="sourcePoint"/>
                        <Array as="points">
                            <mxPoint x="400" y="570"/>
                            <mxPoint x="400" y="500"/>
                        </Array>
                    </mxGeometry>
                </mxCell>
                <mxCell id="119" value="Modifica utente in database" style="rounded=1;whiteSpace=wrap;html=1;arcSize=40;fontColor=#000000;fillColor=#ffffc0;strokeColor=#ff0000;" parent="1" vertex="1">
                    <mxGeometry x="250" y="640" width="120" height="40" as="geometry"/>
                </mxCell>
                <mxCell id="120" value="" style="edgeStyle=orthogonalEdgeStyle;html=1;verticalAlign=bottom;endArrow=open;endSize=8;strokeColor=#ff0000;" parent="1" source="109" target="119" edge="1">
                    <mxGeometry relative="1" as="geometry">
                        <mxPoint x="250" y="590" as="targetPoint"/>
                        <mxPoint x="230" y="530" as="sourcePoint"/>
                        <Array as="points">
                            <mxPoint x="310" y="580"/>
                        </Array>
                    </mxGeometry>
                </mxCell>
                <mxCell id="121" value="modifica ruoli utente" style="edgeLabel;html=1;align=center;verticalAlign=middle;resizable=0;points=[];" parent="120" vertex="1" connectable="0">
                    <mxGeometry x="-0.4787" y="-2" relative="1" as="geometry">
                        <mxPoint x="29" y="22" as="offset"/>
                    </mxGeometry>
                </mxCell>
                <mxCell id="127" value="Rimozione utente in database" style="rounded=1;whiteSpace=wrap;html=1;arcSize=40;fontColor=#000000;fillColor=#ffffc0;strokeColor=#ff0000;" parent="1" vertex="1">
                    <mxGeometry x="120" y="640" width="120" height="40" as="geometry"/>
                </mxCell>
                <mxCell id="131" value="Invio mail di aggiornamento stato a utente coinvolto" style="rounded=1;whiteSpace=wrap;html=1;arcSize=40;fontColor=#000000;fillColor=#ffffc0;strokeColor=#ff0000;" parent="1" vertex="1">
                    <mxGeometry x="180" y="720" width="120" height="40" as="geometry"/>
                </mxCell>
                <mxCell id="132" value="" style="edgeStyle=orthogonalEdgeStyle;html=1;verticalAlign=bottom;endArrow=open;endSize=8;strokeColor=#ff0000;" parent="1" source="127" target="131" edge="1">
                    <mxGeometry relative="1" as="geometry">
                        <mxPoint x="190" y="690" as="targetPoint"/>
                        <mxPoint x="190" y="530" as="sourcePoint"/>
                        <Array as="points"/>
                    </mxGeometry>
                </mxCell>
                <mxCell id="134" value="" style="edgeStyle=orthogonalEdgeStyle;html=1;verticalAlign=bottom;endArrow=open;endSize=8;strokeColor=#ff0000;" parent="1" source="131" target="100" edge="1">
                    <mxGeometry relative="1" as="geometry">
                        <mxPoint x="420" y="730" as="targetPoint"/>
                        <mxPoint x="190" y="730" as="sourcePoint"/>
                        <Array as="points">
                            <mxPoint x="400" y="740"/>
                            <mxPoint x="400" y="500"/>
                        </Array>
                    </mxGeometry>
                </mxCell>
                <mxCell id="140" value="chiusura modale" style="edgeLabel;html=1;align=center;verticalAlign=middle;resizable=0;points=[];" parent="134" vertex="1" connectable="0">
                    <mxGeometry x="0.6536" y="3" relative="1" as="geometry">
                        <mxPoint x="13" y="-3" as="offset"/>
                    </mxGeometry>
                </mxCell>
                <mxCell id="136" value="" style="edgeStyle=orthogonalEdgeStyle;html=1;verticalAlign=bottom;endArrow=open;endSize=8;strokeColor=#ff0000;" parent="1" source="119" target="131" edge="1">
                    <mxGeometry relative="1" as="geometry">
                        <mxPoint x="250" y="730" as="targetPoint"/>
                        <mxPoint x="190" y="690" as="sourcePoint"/>
                        <Array as="points"/>
                    </mxGeometry>
                </mxCell>
                <mxCell id="137" value="" style="edgeStyle=orthogonalEdgeStyle;html=1;verticalAlign=bottom;endArrow=open;endSize=8;strokeColor=#ff0000;" parent="1" source="109" target="127" edge="1">
                    <mxGeometry relative="1" as="geometry">
                        <mxPoint x="310" y="650" as="targetPoint"/>
                        <mxPoint x="250" y="590" as="sourcePoint"/>
                        <Array as="points">
                            <mxPoint x="180" y="620"/>
                            <mxPoint x="180" y="620"/>
                        </Array>
                    </mxGeometry>
                </mxCell>
                <mxCell id="138" value="rimozione utente" style="edgeLabel;html=1;align=center;verticalAlign=middle;resizable=0;points=[];" parent="137" vertex="1" connectable="0">
                    <mxGeometry x="-0.4787" y="-2" relative="1" as="geometry">
                        <mxPoint x="2" y="5" as="offset"/>
                    </mxGeometry>
                </mxCell>
                <mxCell id="152" value="Modale informazioni bozza" style="rounded=1;whiteSpace=wrap;html=1;arcSize=40;fontColor=#000000;fillColor=#ffffc0;strokeColor=#ff0000;" parent="1" vertex="1">
                    <mxGeometry x="-40" y="560" width="120" height="40" as="geometry"/>
                </mxCell>
                <mxCell id="153" value="" style="edgeStyle=orthogonalEdgeStyle;html=1;verticalAlign=bottom;endArrow=open;endSize=8;strokeColor=#ff0000;" parent="1" source="99" target="152" edge="1">
                    <mxGeometry relative="1" as="geometry">
                        <mxPoint x="20" y="560" as="targetPoint"/>
                        <mxPoint x="20" y="520" as="sourcePoint"/>
                        <Array as="points"/>
                    </mxGeometry>
                </mxCell>
                <mxCell id="154" value="click link&lt;div&gt;bozza da approvare&lt;/div&gt;" style="edgeLabel;html=1;align=center;verticalAlign=middle;resizable=0;points=[];" parent="153" vertex="1" connectable="0">
                    <mxGeometry x="-0.4787" y="-2" relative="1" as="geometry">
                        <mxPoint x="2" y="7" as="offset"/>
                    </mxGeometry>
                </mxCell>
                <mxCell id="155" value="Invio mail di aggiornamento stato a scrittore coinvolto" style="rounded=1;whiteSpace=wrap;html=1;arcSize=40;fontColor=#000000;fillColor=#ffffc0;strokeColor=#ff0000;" parent="1" vertex="1">
                    <mxGeometry x="-40" y="799.91" width="120" height="40" as="geometry"/>
                </mxCell>
                <mxCell id="156" value="Modifica versione in database" style="rounded=1;whiteSpace=wrap;html=1;arcSize=40;fontColor=#000000;fillColor=#ffffc0;strokeColor=#ff0000;" parent="1" vertex="1">
                    <mxGeometry x="-40" y="720" width="120" height="40" as="geometry"/>
                </mxCell>
                <mxCell id="159" value="" style="edgeStyle=orthogonalEdgeStyle;html=1;verticalAlign=bottom;endArrow=open;endSize=8;strokeColor=#ff0000;" parent="1" source="156" target="155" edge="1">
                    <mxGeometry relative="1" as="geometry">
                        <mxPoint x="140" y="810" as="targetPoint"/>
                        <mxPoint x="140" y="830" as="sourcePoint"/>
                        <Array as="points"/>
                    </mxGeometry>
                </mxCell>
                <mxCell id="161" value="" style="edgeStyle=orthogonalEdgeStyle;html=1;verticalAlign=bottom;endArrow=open;endSize=8;strokeColor=#ff0000;" parent="1" source="155" target="99" edge="1">
                    <mxGeometry relative="1" as="geometry">
                        <mxPoint x="120" y="720" as="targetPoint"/>
                        <mxPoint x="30" y="690" as="sourcePoint"/>
                        <Array as="points">
                            <mxPoint x="100" y="830"/>
                            <mxPoint x="100" y="500"/>
                        </Array>
                    </mxGeometry>
                </mxCell>
                <mxCell id="162" value="" style="edgeStyle=orthogonalEdgeStyle;html=1;verticalAlign=bottom;endArrow=open;endSize=8;strokeColor=#ff0000;" parent="1" source="152" target="99" edge="1">
                    <mxGeometry relative="1" as="geometry">
                        <mxPoint x="40" y="740" as="targetPoint"/>
                        <mxPoint x="40" y="700" as="sourcePoint"/>
                        <Array as="points">
                            <mxPoint x="100" y="580"/>
                            <mxPoint x="100" y="500"/>
                        </Array>
                    </mxGeometry>
                </mxCell>
                <mxCell id="163" value="chiusura&lt;div&gt;modale&lt;/div&gt;" style="edgeLabel;html=1;align=center;verticalAlign=middle;resizable=0;points=[];" parent="162" vertex="1" connectable="0">
                    <mxGeometry x="0.5991" y="3" relative="1" as="geometry">
                        <mxPoint x="3" y="36" as="offset"/>
                    </mxGeometry>
                </mxCell>
                <mxCell id="164" value="Aggiornamento area personale in base a ricerca" style="rounded=1;whiteSpace=wrap;html=1;arcSize=40;fontColor=#000000;fillColor=#ffffc0;strokeColor=#ff0000;" parent="1" vertex="1">
                    <mxGeometry x="-200" y="320" width="120" height="40" as="geometry"/>
                </mxCell>
                <mxCell id="165" value="" style="edgeStyle=orthogonalEdgeStyle;html=1;verticalAlign=bottom;endArrow=open;endSize=8;strokeColor=#ff0000;" parent="1" source="90" target="164" edge="1">
                    <mxGeometry relative="1" as="geometry">
                        <mxPoint x="30" y="490" as="targetPoint"/>
                        <mxPoint x="29.840000000000003" y="450" as="sourcePoint"/>
                        <Array as="points">
                            <mxPoint x="-140" y="410"/>
                        </Array>
                    </mxGeometry>
                </mxCell>
                <mxCell id="167" value="ricerca utente o versione articolo" style="edgeLabel;html=1;align=center;verticalAlign=middle;resizable=0;points=[];" parent="165" vertex="1" connectable="0">
                    <mxGeometry x="0.652" y="3" relative="1" as="geometry">
                        <mxPoint x="3" as="offset"/>
                    </mxGeometry>
                </mxCell>
                <mxCell id="168" value="" style="edgeStyle=orthogonalEdgeStyle;html=1;verticalAlign=bottom;endArrow=open;endSize=8;strokeColor=#ff0000;" parent="1" source="164" target="90" edge="1">
                    <mxGeometry relative="1" as="geometry">
                        <mxPoint x="-130" y="370" as="targetPoint"/>
                        <mxPoint x="-30" y="420" as="sourcePoint"/>
                        <Array as="points">
                            <mxPoint x="-30" y="350"/>
                        </Array>
                    </mxGeometry>
                </mxCell>
                <mxCell id="171" value="Pagina scrittura articolo" style="rounded=1;whiteSpace=wrap;html=1;arcSize=40;fontColor=#000000;fillColor=#ffffc0;strokeColor=#ff0000;" parent="1" vertex="1">
                    <mxGeometry x="-760" y="479.91" width="120" height="40" as="geometry"/>
                </mxCell>
                <mxCell id="172" value="" style="edgeStyle=orthogonalEdgeStyle;html=1;verticalAlign=bottom;endArrow=open;endSize=8;strokeColor=#ff0000;" parent="1" source="101" target="171" edge="1">
                    <mxGeometry relative="1" as="geometry">
                        <mxPoint x="-410" y="489.91" as="targetPoint"/>
                        <mxPoint x="-310" y="429.91" as="sourcePoint"/>
                        <Array as="points"/>
                    </mxGeometry>
                </mxCell>
                <mxCell id="173" value="click nuovo articolo" style="edgeLabel;html=1;align=center;verticalAlign=middle;resizable=0;points=[];" parent="172" vertex="1" connectable="0">
                    <mxGeometry x="0.5452" y="1" relative="1" as="geometry">
                        <mxPoint x="44" y="-1" as="offset"/>
                    </mxGeometry>
                </mxCell>
                <mxCell id="174" value="&lt;span style=&quot;color: rgb(0, 0, 0);&quot;&gt;Modale informazioni versione&lt;/span&gt;" style="rounded=1;whiteSpace=wrap;html=1;arcSize=40;fontColor=#000000;fillColor=#ffffc0;strokeColor=#ff0000;" parent="1" vertex="1">
                    <mxGeometry x="-480" y="559.91" width="120" height="40" as="geometry"/>
                </mxCell>
                <mxCell id="175" value="" style="edgeStyle=orthogonalEdgeStyle;html=1;verticalAlign=bottom;endArrow=open;endSize=8;strokeColor=#ff0000;" parent="1" source="101" target="174" edge="1">
                    <mxGeometry relative="1" as="geometry">
                        <mxPoint x="-250" y="569.91" as="targetPoint"/>
                        <mxPoint x="-250" y="529.91" as="sourcePoint"/>
                        <Array as="points"/>
                    </mxGeometry>
                </mxCell>
                <mxCell id="176" value="click link&lt;div&gt;versione articolo&lt;/div&gt;" style="edgeLabel;html=1;align=center;verticalAlign=middle;resizable=0;points=[];" parent="175" vertex="1" connectable="0">
                    <mxGeometry x="-0.4787" y="-2" relative="1" as="geometry">
                        <mxPoint x="2" y="7" as="offset"/>
                    </mxGeometry>
                </mxCell>
                <mxCell id="177" value="" style="edgeStyle=orthogonalEdgeStyle;html=1;verticalAlign=bottom;endArrow=open;endSize=8;strokeColor=#ff0000;" parent="1" source="174" target="191" edge="1">
                    <mxGeometry relative="1" as="geometry">
                        <mxPoint x="-610" y="579.54" as="targetPoint"/>
                        <mxPoint x="-490" y="579.54" as="sourcePoint"/>
                        <Array as="points"/>
                    </mxGeometry>
                </mxCell>
                <mxCell id="178" value="click modiffica articolo" style="edgeLabel;html=1;align=center;verticalAlign=middle;resizable=0;points=[];" parent="177" vertex="1" connectable="0">
                    <mxGeometry x="0.5452" y="1" relative="1" as="geometry">
                        <mxPoint x="54" y="-1" as="offset"/>
                    </mxGeometry>
                </mxCell>
                <mxCell id="179" value="" style="edgeStyle=orthogonalEdgeStyle;html=1;verticalAlign=bottom;endArrow=open;endSize=8;strokeColor=#ff0000;" parent="1" source="174" target="181" edge="1">
                    <mxGeometry relative="1" as="geometry">
                        <mxPoint x="-529" y="634.91" as="targetPoint"/>
                        <mxPoint x="-529" y="594.91" as="sourcePoint"/>
                        <Array as="points"/>
                    </mxGeometry>
                </mxCell>
                <mxCell id="180" value="Rimozione versione" style="edgeLabel;html=1;align=center;verticalAlign=middle;resizable=0;points=[];" parent="179" vertex="1" connectable="0">
                    <mxGeometry x="-0.4787" y="-2" relative="1" as="geometry">
                        <mxPoint x="2" y="7" as="offset"/>
                    </mxGeometry>
                </mxCell>
                <mxCell id="181" value="Invio mail di aggiornamento a moderatori" style="rounded=1;whiteSpace=wrap;html=1;arcSize=40;fontColor=#000000;fillColor=#ffffc0;strokeColor=#ff0000;" parent="1" vertex="1">
                    <mxGeometry x="-480" y="639.91" width="120" height="40" as="geometry"/>
                </mxCell>
                <mxCell id="183" value="" style="edgeStyle=orthogonalEdgeStyle;html=1;verticalAlign=bottom;endArrow=open;endSize=8;strokeColor=#ff0000;" parent="1" source="181" edge="1">
                    <mxGeometry relative="1" as="geometry">
                        <mxPoint x="-360" y="499.91" as="targetPoint"/>
                        <mxPoint x="-360" y="739.91" as="sourcePoint"/>
                        <Array as="points">
                            <mxPoint x="-340" y="659.91"/>
                            <mxPoint x="-340" y="499.91"/>
                        </Array>
                    </mxGeometry>
                </mxCell>
                <mxCell id="184" value="" style="edgeStyle=orthogonalEdgeStyle;html=1;verticalAlign=bottom;endArrow=open;endSize=8;strokeColor=#ff0000;" parent="1" source="174" target="101" edge="1">
                    <mxGeometry relative="1" as="geometry">
                        <mxPoint x="-360" y="499.91" as="targetPoint"/>
                        <mxPoint x="-360" y="579.91" as="sourcePoint"/>
                        <Array as="points">
                            <mxPoint x="-340" y="579.91"/>
                            <mxPoint x="-340" y="499.91"/>
                        </Array>
                    </mxGeometry>
                </mxCell>
                <mxCell id="186" value="modifica&lt;div&gt;approvata?&lt;/div&gt;" style="rhombus;whiteSpace=wrap;html=1;fontColor=#000000;fillColor=#ffffc0;strokeColor=#ff0000;" parent="1" vertex="1">
                    <mxGeometry x="-20" y="640" width="80" height="40" as="geometry"/>
                </mxCell>
                <mxCell id="187" value="no" style="edgeStyle=orthogonalEdgeStyle;html=1;align=left;verticalAlign=bottom;endArrow=open;endSize=8;strokeColor=#ff0000;" parent="1" source="186" target="155" edge="1">
                    <mxGeometry x="-0.6361" relative="1" as="geometry">
                        <mxPoint x="-50" y="760" as="targetPoint"/>
                        <Array as="points">
                            <mxPoint x="-50" y="670"/>
                            <mxPoint x="-50" y="830"/>
                        </Array>
                        <mxPoint as="offset"/>
                    </mxGeometry>
                </mxCell>
                <mxCell id="188" value="sÃ¬" style="edgeStyle=orthogonalEdgeStyle;html=1;align=left;verticalAlign=top;endArrow=open;endSize=8;strokeColor=#ff0000;" parent="1" source="186" target="156" edge="1">
                    <mxGeometry x="-1" relative="1" as="geometry">
                        <mxPoint x="20" y="720" as="targetPoint"/>
                    </mxGeometry>
                </mxCell>
                <mxCell id="190" value="" style="edgeStyle=orthogonalEdgeStyle;html=1;align=left;verticalAlign=top;endArrow=open;endSize=8;strokeColor=#ff0000;" parent="1" source="152" target="186" edge="1">
                    <mxGeometry x="-1" relative="1" as="geometry">
                        <mxPoint x="30" y="714" as="targetPoint"/>
                        <mxPoint x="30" y="674" as="sourcePoint"/>
                    </mxGeometry>
                </mxCell>
                <mxCell id="264" value="approvazione/rifituo versione" style="edgeLabel;html=1;align=center;verticalAlign=middle;resizable=0;points=[];" vertex="1" connectable="0" parent="190">
                    <mxGeometry x="-0.1647" y="1" relative="1" as="geometry">
                        <mxPoint as="offset"/>
                    </mxGeometry>
                </mxCell>
                <mxCell id="191" value="Pagina scrittura articolo (compilata)" style="rounded=1;whiteSpace=wrap;html=1;arcSize=40;fontColor=#000000;fillColor=#ffffc0;strokeColor=#ff0000;" parent="1" vertex="1">
                    <mxGeometry x="-760" y="559.91" width="120" height="40" as="geometry"/>
                </mxCell>
                <mxCell id="194" value="campi compilati correttamente?" style="rhombus;whiteSpace=wrap;html=1;fontColor=#000000;fillColor=#ffffc0;strokeColor=#ff0000;" parent="1" vertex="1">
                    <mxGeometry x="-740" y="639.91" width="80" height="40" as="geometry"/>
                </mxCell>
                <mxCell id="195" value="no" style="edgeStyle=orthogonalEdgeStyle;html=1;align=left;verticalAlign=bottom;endArrow=open;endSize=8;strokeColor=#ff0000;" parent="1" source="194" target="207" edge="1">
                    <mxGeometry x="-0.7776" relative="1" as="geometry">
                        <mxPoint x="-870" y="599.91" as="targetPoint"/>
                        <mxPoint as="offset"/>
                    </mxGeometry>
                </mxCell>
                <mxCell id="196" value="sÃ¬" style="edgeStyle=orthogonalEdgeStyle;html=1;align=left;verticalAlign=top;endArrow=open;endSize=8;strokeColor=#ff0000;" parent="1" source="194" target="201" edge="1">
                    <mxGeometry x="-1" relative="1" as="geometry">
                        <mxPoint x="-700" y="760.3862486049106" as="targetPoint"/>
                    </mxGeometry>
                </mxCell>
                <mxCell id="197" value="" style="edgeStyle=orthogonalEdgeStyle;html=1;verticalAlign=bottom;endArrow=open;endSize=8;strokeColor=#ff0000;" parent="1" source="171" target="204" edge="1">
                    <mxGeometry relative="1" as="geometry">
                        <mxPoint x="-920" y="499.91" as="targetPoint"/>
                        <mxPoint x="-470" y="509.90999999999997" as="sourcePoint"/>
                        <Array as="points"/>
                    </mxGeometry>
                </mxCell>
                <mxCell id="212" value="invio&lt;div&gt;articolo&lt;/div&gt;" style="edgeLabel;html=1;align=center;verticalAlign=middle;resizable=0;points=[];" parent="197" vertex="1" connectable="0">
                    <mxGeometry x="0.0761" y="-2" relative="1" as="geometry">
                        <mxPoint x="7" as="offset"/>
                    </mxGeometry>
                </mxCell>
                <mxCell id="199" value="" style="edgeStyle=orthogonalEdgeStyle;html=1;verticalAlign=bottom;endArrow=open;endSize=8;strokeColor=#ff0000;" parent="1" source="191" target="194" edge="1">
                    <mxGeometry relative="1" as="geometry">
                        <mxPoint x="-830" y="549.91" as="targetPoint"/>
                        <mxPoint x="-750" y="509.90999999999997" as="sourcePoint"/>
                        <Array as="points"/>
                    </mxGeometry>
                </mxCell>
                <mxCell id="200" value="salvataggio articolo" style="edgeLabel;html=1;align=center;verticalAlign=middle;resizable=0;points=[];" parent="199" vertex="1" connectable="0">
                    <mxGeometry x="0.5452" y="1" relative="1" as="geometry">
                        <mxPoint x="-1" y="-15" as="offset"/>
                    </mxGeometry>
                </mxCell>
                <mxCell id="201" value="Aggiunta versione in database" style="rounded=1;whiteSpace=wrap;html=1;arcSize=40;fontColor=#000000;fillColor=#ffffc0;strokeColor=#ff0000;" parent="1" vertex="1">
                    <mxGeometry x="-760" y="719.91" width="120" height="40" as="geometry"/>
                </mxCell>
                <mxCell id="204" value="&lt;span style=&quot;color: rgb(0, 0, 0);&quot;&gt;campi compilati correttamente?&lt;/span&gt;" style="rhombus;whiteSpace=wrap;html=1;fontColor=#000000;fillColor=#ffffc0;strokeColor=#ff0000;" parent="1" vertex="1">
                    <mxGeometry x="-900" y="479.91" width="80" height="40" as="geometry"/>
                </mxCell>
                <mxCell id="205" value="no" style="edgeStyle=orthogonalEdgeStyle;html=1;align=left;verticalAlign=bottom;endArrow=open;endSize=8;strokeColor=#ff0000;" parent="1" source="204" target="209" edge="1">
                    <mxGeometry x="-1" relative="1" as="geometry">
                        <mxPoint x="-840" y="439.02112467447915" as="targetPoint"/>
                    </mxGeometry>
                </mxCell>
                <mxCell id="206" value="sÃ¬" style="edgeStyle=orthogonalEdgeStyle;html=1;align=left;verticalAlign=top;endArrow=open;endSize=8;strokeColor=#ff0000;" parent="1" source="204" target="201" edge="1">
                    <mxGeometry x="-0.9198" y="-20" relative="1" as="geometry">
                        <mxPoint x="-1000" y="759.91" as="targetPoint"/>
                        <Array as="points">
                            <mxPoint x="-960" y="499.91"/>
                            <mxPoint x="-960" y="739.91"/>
                        </Array>
                        <mxPoint as="offset"/>
                    </mxGeometry>
                </mxCell>
                <mxCell id="207" value="Errore invio" style="rounded=1;whiteSpace=wrap;html=1;arcSize=40;fontColor=#000000;fillColor=#ffffc0;strokeColor=#ff0000;" parent="1" vertex="1">
                    <mxGeometry x="-920" y="559.91" width="120" height="40" as="geometry"/>
                </mxCell>
                <mxCell id="208" value="" style="edgeStyle=orthogonalEdgeStyle;html=1;align=left;verticalAlign=bottom;endArrow=open;endSize=8;strokeColor=#ff0000;" parent="1" source="207" target="191" edge="1">
                    <mxGeometry x="-0.7776" relative="1" as="geometry">
                        <mxPoint x="-850" y="609.91" as="targetPoint"/>
                        <mxPoint x="-730" y="669.91" as="sourcePoint"/>
                        <mxPoint as="offset"/>
                    </mxGeometry>
                </mxCell>
                <mxCell id="209" value="Errore invio" style="rounded=1;whiteSpace=wrap;html=1;arcSize=40;fontColor=#000000;fillColor=#ffffc0;strokeColor=#ff0000;" parent="1" vertex="1">
                    <mxGeometry x="-920" y="399.91" width="120" height="40" as="geometry"/>
                </mxCell>
                <mxCell id="210" value="" style="edgeStyle=orthogonalEdgeStyle;html=1;align=left;verticalAlign=bottom;endArrow=open;endSize=8;strokeColor=#ff0000;" parent="1" source="209" target="171" edge="1">
                    <mxGeometry x="-0.7776" relative="1" as="geometry">
                        <mxPoint x="-750" y="589.91" as="targetPoint"/>
                        <mxPoint x="-790" y="589.91" as="sourcePoint"/>
                        <mxPoint as="offset"/>
                    </mxGeometry>
                </mxCell>
                <mxCell id="213" value="Invio mail di aggiornamento stato a scrittore coinvolto" style="rounded=1;whiteSpace=wrap;html=1;arcSize=40;fontColor=#000000;fillColor=#ffffc0;strokeColor=#ff0000;" parent="1" vertex="1">
                    <mxGeometry x="-760" y="799.91" width="120" height="40" as="geometry"/>
                </mxCell>
                <mxCell id="214" value="" style="edgeStyle=orthogonalEdgeStyle;html=1;verticalAlign=bottom;endArrow=open;endSize=8;strokeColor=#ff0000;" parent="1" source="201" target="213" edge="1">
                    <mxGeometry relative="1" as="geometry">
                        <mxPoint x="-580" y="799.91" as="targetPoint"/>
                        <mxPoint x="-700" y="759.91" as="sourcePoint"/>
                        <Array as="points"/>
                    </mxGeometry>
                </mxCell>
                <mxCell id="215" value="" style="edgeStyle=orthogonalEdgeStyle;html=1;verticalAlign=bottom;endArrow=open;endSize=8;strokeColor=#ff0000;" parent="1" source="213" target="101" edge="1">
                    <mxGeometry relative="1" as="geometry">
                        <mxPoint x="-640" y="519.91" as="targetPoint"/>
                        <mxPoint x="-690" y="709.91" as="sourcePoint"/>
                        <Array as="points">
                            <mxPoint x="-340" y="819.91"/>
                            <mxPoint x="-340" y="499.91"/>
                        </Array>
                    </mxGeometry>
                </mxCell>
                <mxCell id="217" value="chiusura&lt;div&gt;modale&lt;/div&gt;" style="edgeLabel;html=1;align=center;verticalAlign=middle;resizable=0;points=[];" parent="1" vertex="1" connectable="0">
                    <mxGeometry x="-340" y="539.9076470588234" as="geometry"/>
                </mxCell>
                <mxCell id="218" value="Pagina con informazioni personali" style="rounded=1;whiteSpace=wrap;html=1;arcSize=40;fontColor=#000000;fillColor=#ffffc0;strokeColor=#ff0000;" parent="1" vertex="1">
                    <mxGeometry x="-120" y="200" width="120" height="40" as="geometry"/>
                </mxCell>
                <mxCell id="219" value="" style="edgeStyle=orthogonalEdgeStyle;html=1;verticalAlign=bottom;endArrow=open;endSize=8;strokeColor=#ff0000;" parent="1" source="90" target="218" edge="1">
                    <mxGeometry relative="1" as="geometry">
                        <mxPoint x="-150" y="300" as="targetPoint"/>
                        <Array as="points">
                            <mxPoint x="20" y="220"/>
                        </Array>
                    </mxGeometry>
                </mxCell>
                <mxCell id="220" value="click pulsante&amp;nbsp;&lt;div&gt;informazioni personali&lt;/div&gt;" style="edgeLabel;html=1;align=center;verticalAlign=middle;resizable=0;points=[];" parent="219" vertex="1" connectable="0">
                    <mxGeometry x="0.2483" y="2" relative="1" as="geometry">
                        <mxPoint x="2" y="15" as="offset"/>
                    </mxGeometry>
                </mxCell>
                <mxCell id="221" value="Modifica dati utente in database" style="rounded=1;whiteSpace=wrap;html=1;arcSize=40;fontColor=#000000;fillColor=#ffffc0;strokeColor=#ff0000;" parent="1" vertex="1">
                    <mxGeometry x="-400" y="200" width="120" height="40" as="geometry"/>
                </mxCell>
                <mxCell id="222" value="" style="edgeStyle=orthogonalEdgeStyle;html=1;verticalAlign=bottom;endArrow=open;endSize=8;strokeColor=#ff0000;" parent="1" source="218" target="90" edge="1">
                    <mxGeometry relative="1" as="geometry">
                        <mxPoint x="-260" y="300" as="targetPoint"/>
                        <Array as="points">
                            <mxPoint x="-60" y="320"/>
                            <mxPoint x="-10" y="320"/>
                        </Array>
                    </mxGeometry>
                </mxCell>
                <mxCell id="223" value="click pulsante area personale" style="edgeLabel;html=1;align=center;verticalAlign=middle;resizable=0;points=[];" parent="222" vertex="1" connectable="0">
                    <mxGeometry x="-0.7479" y="-3" relative="1" as="geometry">
                        <mxPoint y="-5" as="offset"/>
                    </mxGeometry>
                </mxCell>
                <mxCell id="224" value="" style="edgeStyle=orthogonalEdgeStyle;html=1;verticalAlign=bottom;endArrow=open;endSize=8;strokeColor=#ff0000;" parent="1" source="218" target="221" edge="1">
                    <mxGeometry relative="1" as="geometry">
                        <mxPoint x="-210" y="130" as="targetPoint"/>
                        <mxPoint x="110" y="170" as="sourcePoint"/>
                    </mxGeometry>
                </mxCell>
                <mxCell id="225" value="modifica informazioni&lt;div&gt;ed invio&lt;/div&gt;" style="edgeLabel;html=1;align=center;verticalAlign=middle;resizable=0;points=[];" parent="224" vertex="1" connectable="0">
                    <mxGeometry x="0.2428" y="-1" relative="1" as="geometry">
                        <mxPoint x="25" y="1" as="offset"/>
                    </mxGeometry>
                </mxCell>
                <mxCell id="226" value="" style="edgeStyle=orthogonalEdgeStyle;html=1;verticalAlign=bottom;endArrow=open;endSize=8;strokeColor=#ff0000;" parent="1" source="221" target="218" edge="1">
                    <mxGeometry relative="1" as="geometry">
                        <mxPoint x="-60" y="220" as="targetPoint"/>
                        <mxPoint x="110" y="170" as="sourcePoint"/>
                        <Array as="points">
                            <mxPoint x="-340" y="160"/>
                            <mxPoint x="-60" y="160"/>
                        </Array>
                    </mxGeometry>
                </mxCell>
                <mxCell id="227" value="" style="ellipse;html=1;shape=endState;fillColor=#000000;strokeColor=#ff0000;" parent="1" vertex="1">
                    <mxGeometry x="-40" y="80" width="40" height="40" as="geometry"/>
                </mxCell>
                <mxCell id="228" value="" style="edgeStyle=orthogonalEdgeStyle;html=1;verticalAlign=bottom;endArrow=open;endSize=8;strokeColor=#ff0000;" parent="1" source="218" target="227" edge="1">
                    <mxGeometry relative="1" as="geometry">
                        <mxPoint x="110" y="130" as="targetPoint"/>
                        <mxPoint x="110" y="170" as="sourcePoint"/>
                        <Array as="points">
                            <mxPoint x="-20" y="180"/>
                            <mxPoint x="-20" y="180"/>
                        </Array>
                    </mxGeometry>
                </mxCell>
                <mxCell id="230" value="chiusura pagina" style="edgeLabel;html=1;align=center;verticalAlign=middle;resizable=0;points=[];" parent="228" vertex="1" connectable="0">
                    <mxGeometry x="-0.3039" y="-1" relative="1" as="geometry">
                        <mxPoint x="-1" y="-22" as="offset"/>
                    </mxGeometry>
                </mxCell>
                <mxCell id="231" value="" style="ellipse;html=1;shape=endState;fillColor=#000000;strokeColor=#ff0000;" parent="1" vertex="1">
                    <mxGeometry x="480" y="80" width="40" height="40" as="geometry"/>
                </mxCell>
                <mxCell id="232" value="" style="edgeStyle=orthogonalEdgeStyle;html=1;verticalAlign=bottom;endArrow=open;endSize=8;strokeColor=#ff0000;" parent="1" source="4" target="231" edge="1">
                    <mxGeometry relative="1" as="geometry">
                        <mxPoint x="630" y="130" as="targetPoint"/>
                        <mxPoint x="510" y="200" as="sourcePoint"/>
                        <Array as="points">
                            <mxPoint x="500" y="170"/>
                        </Array>
                    </mxGeometry>
                </mxCell>
                <mxCell id="233" value="chiusura pagina" style="edgeLabel;html=1;align=center;verticalAlign=middle;resizable=0;points=[];" parent="232" vertex="1" connectable="0">
                    <mxGeometry x="-0.3039" y="-1" relative="1" as="geometry">
                        <mxPoint x="51" y="-11" as="offset"/>
                    </mxGeometry>
                </mxCell>
                <mxCell id="234" value="" style="ellipse;html=1;shape=endState;fillColor=#000000;strokeColor=#ff0000;" parent="1" vertex="1">
                    <mxGeometry x="760" y="160" width="40" height="40" as="geometry"/>
                </mxCell>
                <mxCell id="235" value="" style="edgeStyle=orthogonalEdgeStyle;html=1;verticalAlign=bottom;endArrow=open;endSize=8;strokeColor=#ff0000;" parent="1" source="13" target="234" edge="1">
                    <mxGeometry relative="1" as="geometry">
                        <mxPoint x="839.94" y="110" as="targetPoint"/>
                        <mxPoint x="719.94" y="180" as="sourcePoint"/>
                        <Array as="points">
                            <mxPoint x="720" y="250"/>
                            <mxPoint x="720" y="180"/>
                        </Array>
                    </mxGeometry>
                </mxCell>
                <mxCell id="236" value="chiusura pagina" style="edgeLabel;html=1;align=center;verticalAlign=middle;resizable=0;points=[];" parent="235" vertex="1" connectable="0">
                    <mxGeometry x="-0.3039" y="-1" relative="1" as="geometry">
                        <mxPoint x="66" y="-41" as="offset"/>
                    </mxGeometry>
                </mxCell>
                <mxCell id="238" value="" style="ellipse;html=1;shape=endState;fillColor=#000000;strokeColor=#ff0000;" parent="1" vertex="1">
                    <mxGeometry x="280" y="400" width="40" height="40" as="geometry"/>
                </mxCell>
                <mxCell id="239" value="" style="edgeStyle=orthogonalEdgeStyle;html=1;verticalAlign=bottom;endArrow=open;endSize=8;strokeColor=#ff0000;" parent="1" source="90" target="238" edge="1">
                    <mxGeometry relative="1" as="geometry">
                        <mxPoint x="430" y="450" as="targetPoint"/>
                        <mxPoint x="300" y="520" as="sourcePoint"/>
                        <Array as="points">
                            <mxPoint x="180" y="410"/>
                            <mxPoint x="180" y="410"/>
                        </Array>
                    </mxGeometry>
                </mxCell>
                <mxCell id="240" value="chiusura pagina" style="edgeLabel;html=1;align=center;verticalAlign=middle;resizable=0;points=[];" parent="239" vertex="1" connectable="0">
                    <mxGeometry x="-0.3039" y="-1" relative="1" as="geometry">
                        <mxPoint x="70" y="-1" as="offset"/>
                    </mxGeometry>
                </mxCell>
                <mxCell id="241" value="" style="ellipse;html=1;shape=endState;fillColor=#000000;strokeColor=#ff0000;" parent="1" vertex="1">
                    <mxGeometry x="80" width="40" height="40" as="geometry"/>
                </mxCell>
                <mxCell id="242" value="" style="edgeStyle=orthogonalEdgeStyle;html=1;verticalAlign=bottom;endArrow=open;endSize=8;strokeColor=#ff0000;" parent="1" source="73" target="241" edge="1">
                    <mxGeometry relative="1" as="geometry">
                        <mxPoint x="230" y="50" as="targetPoint"/>
                        <mxPoint x="100" y="110" as="sourcePoint"/>
                        <Array as="points"/>
                    </mxGeometry>
                </mxCell>
                <mxCell id="243" value="chiusura pagina" style="edgeLabel;html=1;align=center;verticalAlign=middle;resizable=0;points=[];" parent="242" vertex="1" connectable="0">
                    <mxGeometry x="-0.3039" y="-1" relative="1" as="geometry">
                        <mxPoint x="-1" y="-2" as="offset"/>
                    </mxGeometry>
                </mxCell>
                <mxCell id="245" value="Pagina di login/registrazione" style="text;html=1;align=center;verticalAlign=middle;resizable=0;points=[];autosize=1;strokeColor=none;fillColor=none;" parent="1" vertex="1">
                    <mxGeometry x="570" y="650" width="170" height="30" as="geometry"/>
                </mxCell>
                <mxCell id="246" value="&lt;div&gt;Sottosezione amministratore&lt;/div&gt;" style="text;html=1;align=center;verticalAlign=middle;resizable=0;points=[];autosize=1;strokeColor=none;fillColor=none;" parent="1" vertex="1">
                    <mxGeometry x="170" y="775" width="180" height="30" as="geometry"/>
                </mxCell>
                <mxCell id="249" value="&lt;div&gt;Sottosezione scrittore&lt;/div&gt;" style="text;html=1;align=center;verticalAlign=middle;resizable=0;points=[];autosize=1;strokeColor=none;fillColor=none;" parent="1" vertex="1">
                    <mxGeometry x="-720" y="850" width="140" height="30" as="geometry"/>
                </mxCell>
                <mxCell id="250" value="&lt;div&gt;&lt;font color=&quot;#000000&quot;&gt;S&lt;/font&gt;ottosezione moderatore&lt;/div&gt;" style="text;html=1;align=center;verticalAlign=middle;resizable=0;points=[];autosize=1;strokeColor=none;fillColor=none;" parent="1" vertex="1">
                    <mxGeometry x="-190" y="850" width="160" height="30" as="geometry"/>
                </mxCell>
                <mxCell id="252" value="Pagina con informazioni personali" style="text;html=1;align=center;verticalAlign=middle;resizable=0;points=[];autosize=1;strokeColor=none;fillColor=none;" parent="1" vertex="1">
                    <mxGeometry x="-291.5" y="40" width="200" height="30" as="geometry"/>
                </mxCell>
                <mxCell id="256" value="Pagina articolo" style="text;html=1;align=center;verticalAlign=middle;resizable=0;points=[];autosize=1;strokeColor=none;fillColor=none;" parent="1" vertex="1">
                    <mxGeometry x="70" y="210" width="100" height="30" as="geometry"/>
                </mxCell>
                <mxCell id="258" value="Pagina home" style="text;html=1;align=center;verticalAlign=middle;resizable=0;points=[];autosize=1;strokeColor=none;fillColor=none;" parent="1" vertex="1">
                    <mxGeometry x="475" y="40" width="90" height="30" as="geometry"/>
                </mxCell>
                <mxCell id="259" value="Pagina area personale" style="text;html=1;align=center;verticalAlign=middle;resizable=0;points=[];autosize=1;strokeColor=none;fillColor=none;" parent="1" vertex="1">
                    <mxGeometry x="-410" y="880" width="140" height="30" as="geometry"/>
                </mxCell>
                <mxCell id="265" value="Tabella con tutte le versioni dell&#39;articolo" style="rounded=1;whiteSpace=wrap;html=1;arcSize=40;fontColor=#000000;fillColor=#ffffc0;strokeColor=#ff0000;" vertex="1" parent="1">
                    <mxGeometry x="-180" y="560" width="120" height="40" as="geometry"/>
                </mxCell>
                <mxCell id="266" value="" style="edgeStyle=orthogonalEdgeStyle;html=1;verticalAlign=bottom;endArrow=open;endSize=8;strokeColor=#ff0000;" edge="1" parent="1" source="99" target="265">
                    <mxGeometry relative="1" as="geometry">
                        <mxPoint x="30" y="570" as="targetPoint"/>
                        <mxPoint x="30" y="530" as="sourcePoint"/>
                        <Array as="points"/>
                    </mxGeometry>
                </mxCell>
                <mxCell id="267" value="click link&lt;div&gt;articolo&lt;/div&gt;" style="edgeLabel;html=1;align=center;verticalAlign=middle;resizable=0;points=[];" vertex="1" connectable="0" parent="266">
                    <mxGeometry x="-0.4787" y="-2" relative="1" as="geometry">
                        <mxPoint x="-43" y="22" as="offset"/>
                    </mxGeometry>
                </mxCell>
                <mxCell id="268" value="Modale dettaglio versione" style="rounded=1;whiteSpace=wrap;html=1;arcSize=40;fontColor=#000000;fillColor=#ffffc0;strokeColor=#ff0000;" vertex="1" parent="1">
                    <mxGeometry x="-180" y="639.91" width="120" height="40" as="geometry"/>
                </mxCell>
                <mxCell id="269" value="" style="edgeStyle=orthogonalEdgeStyle;html=1;align=left;verticalAlign=top;endArrow=open;endSize=8;strokeColor=#ff0000;" edge="1" parent="1" source="265" target="268">
                    <mxGeometry x="-1" relative="1" as="geometry">
                        <mxPoint x="30" y="660" as="targetPoint"/>
                        <mxPoint x="30" y="610" as="sourcePoint"/>
                    </mxGeometry>
                </mxCell>
                <mxCell id="271" value="click link dettaglio versione" style="edgeLabel;html=1;align=center;verticalAlign=middle;resizable=0;points=[];" vertex="1" connectable="0" parent="269">
                    <mxGeometry x="0.0959" y="-2" relative="1" as="geometry">
                        <mxPoint x="2" y="-7" as="offset"/>
                    </mxGeometry>
                </mxCell>
                <mxCell id="272" value="" style="edgeStyle=orthogonalEdgeStyle;html=1;align=left;verticalAlign=top;endArrow=open;endSize=8;strokeColor=#ff0000;" edge="1" parent="1" source="268" target="265">
                    <mxGeometry x="-1" relative="1" as="geometry">
                        <mxPoint x="-180" y="765" as="targetPoint"/>
                        <mxPoint x="-180" y="715" as="sourcePoint"/>
                        <Array as="points">
                            <mxPoint x="-190" y="670"/>
                            <mxPoint x="-190" y="590"/>
                        </Array>
                    </mxGeometry>
                </mxCell>
                <mxCell id="274" value="Modifica versione in database" style="rounded=1;whiteSpace=wrap;html=1;arcSize=40;fontColor=#000000;fillColor=#ffffc0;strokeColor=#ff0000;" vertex="1" parent="1">
                    <mxGeometry x="-320" y="639.91" width="120" height="40" as="geometry"/>
                </mxCell>
                <mxCell id="275" value="" style="edgeStyle=orthogonalEdgeStyle;html=1;align=left;verticalAlign=top;endArrow=open;endSize=8;strokeColor=#ff0000;" edge="1" parent="1" source="274" target="265">
                    <mxGeometry x="-1" relative="1" as="geometry">
                        <mxPoint x="-170" y="600" as="targetPoint"/>
                        <mxPoint x="-170" y="680" as="sourcePoint"/>
                        <Array as="points">
                            <mxPoint x="-230" y="590"/>
                        </Array>
                    </mxGeometry>
                </mxCell>
                <mxCell id="277" value="&lt;span style=&quot;color: rgb(0, 0, 0);&quot;&gt;chiusura modale&lt;/span&gt;" style="edgeLabel;html=1;align=center;verticalAlign=middle;resizable=0;points=[];" vertex="1" connectable="0" parent="275">
                    <mxGeometry x="-0.0812" y="1" relative="1" as="geometry">
                        <mxPoint x="21" y="36" as="offset"/>
                    </mxGeometry>
                </mxCell>
                <mxCell id="278" value="" style="edgeStyle=orthogonalEdgeStyle;html=1;verticalAlign=bottom;endArrow=open;endSize=8;strokeColor=#ff0000;" edge="1" parent="1" source="265" target="274">
                    <mxGeometry relative="1" as="geometry">
                        <mxPoint x="-300" y="630" as="targetPoint"/>
                        <mxPoint x="-220" y="570" as="sourcePoint"/>
                        <Array as="points"/>
                    </mxGeometry>
                </mxCell>
                <mxCell id="279" value="click pulsante&lt;div&gt;ripristino versione&lt;/div&gt;" style="edgeLabel;html=1;align=center;verticalAlign=middle;resizable=0;points=[];" vertex="1" connectable="0" parent="278">
                    <mxGeometry x="-0.4787" y="-2" relative="1" as="geometry">
                        <mxPoint x="-63" y="6" as="offset"/>
                    </mxGeometry>
                </mxCell>
            </root>
        </mxGraphModel>
    </diagram>
</mxfile>